<?xml version="1.0" encoding="utf-8"?>
<!-- Generator: Adobe Illustrator 22.0.1, SVG Export Plug-In . SVG Version: 6.00 Build 0)  -->
<svg version="1.1" id="Capa_1" xmlns="http://www.w3.org/2000/svg" xmlns:xlink="http://www.w3.org/1999/xlink" x="0px" y="0px"
	 viewBox="0 0 44.7 55.8" style="enable-background:new 0 0 44.7 55.8;" xml:space="preserve">
<style type="text/css">
	.st0{fill:#FFFFFF;}
</style>
<g>
	<path class="st0" d="M16.8,39.3c1.3,0,2.4-1.1,2.4-2.4c0-1.3-1.1-2.4-2.4-2.4c-0.1,0-0.2,0-0.2,0l0.3,2.4l-1.9-1.4
		c-0.3,0.4-0.5,0.9-0.5,1.4C14.4,38.3,15.5,39.3,16.8,39.3z"/>
	<path class="st0" d="M27.2,39.3c1.3,0,2.4-1.1,2.4-2.4c0-1.3-1.1-2.4-2.4-2.4c-0.1,0-0.2,0-0.3,0l0.3,2.4l-1.9-1.4
		C25,36,24.9,36.4,24.9,37C24.9,38.3,25.9,39.3,27.2,39.3z"/>
	<path class="st0" d="M29.6,42.7c-0.3-0.2-0.5-0.2-0.7,0c-0.7,0.4,0.2,1.7-1.1,1.7c-1.8,0-4-3.5-5.7-1.1c-1.7-2.4-3.9,1.1-5.7,1.1
		c-1.3,0-0.5-1.2-1.1-1.7c-0.3-0.2-0.4-0.2-0.7,0c-0.5,0.3-1.4,1.6-0.4,2.6c1.8,1.8,6.7,1.8,7.9-0.4c1.2,2.2,6.1,2.2,7.9,0.4
		C30.9,44.4,30.1,43,29.6,42.7z"/>
	<path class="st0" d="M5,35.3c0.5,1.8,2.1,4.4,3.4,4.4c1.4,7.5,5.1,12.8,13.6,12.8c8.5,0,12.3-5.3,13.6-12.8
		c1.3-0.1,2.9-2.7,3.4-4.4c0.5-1.9-0.1-3.8-1.4-4.2c-0.4-0.1-0.8-0.1-1.2,0.1v-0.1c0-1.1,0-3.5-0.1-5.4c3-1.6,5-4.8,5-8.2
		c0-5.2-4.2-9.3-9.3-9.3c-0.7,0-1.3,0.1-2,0.2l-0.5,0.1c-1.8-2.1-4.3-3.3-7.1-3.3c-2.5,0-4.9,1-6.6,2.8l-0.5,0.5
		c-0.8-0.2-1.7-0.3-2.5-0.3c-5.2,0-9.3,4.2-9.3,9.3c0,3.3,1.8,6.4,4.6,8c-0.1,1.9-0.1,4.4-0.1,5.7v0.1c-0.4-0.2-0.9-0.3-1.3-0.2
		C5,31.5,4.4,33.3,5,35.3z M33.8,24.1c0.1,1.5,0.2,5.4,0.2,7c-2-0.9-6.7-1.6-12-1.6c-5.2,0-10.2,0.9-12,1.6c0-1.6,0.1-5.6,0.2-7.2
		c-2.7-1-4.6-3.5-4.6-6.6c0-3.8,3.1-7,7-7c1.2,0,2.4,0.3,3.4,0.9c0.4,0.2,2.6,1.6,2,5.2c1.7-2.7,0.3-5.8-0.7-7
		c1.3-1.3,3-2.1,4.9-2.1c2.7,0,5.1,1.6,6.2,3.8c0.5,0.8,1.1,2.7,0.4,5.7c1.3-1.9,2-4.1,1.5-6.4c0.5-0.1,1-0.2,1.5-0.2
		c3.8,0,7,3.1,7,7C38.8,20.6,36.7,23.3,33.8,24.1z M9.8,33.8l1.1-0.4c1.3-0.5,5.9-1.4,11.1-1.4c5.2,0,9.5,0.7,11,1.4l1.1,0.5
		C33.6,45.4,29.9,50.4,22,50.4C14,50.4,10.3,45.4,9.8,33.8z"/>
</g>
</svg>
